<svg width="181" height="55" viewBox="0 0 181 55" fill="none" xmlns="http://www.w3.org/2000/svg">
<path d="M24.8956 2.25977C11.1617 2.25977 0.0283203 13.3932 0.0283203 27.127C0.0283203 40.8608 11.1617 51.9942 24.8956 51.9942C37.2173 51.9942 47.4458 43.0326 49.419 31.2715H49.2405C47.4001 38.4218 40.9094 43.7052 33.1846 43.7052C24.0288 43.7052 16.6065 36.2829 16.6065 27.127C16.6065 17.9711 24.0288 10.5488 33.1846 10.5488C40.9094 10.5488 47.4001 15.8322 49.2405 22.9825H49.419C47.4458 11.2214 37.2173 2.25977 24.8956 2.25977Z" fill="#A4BCFD"/>
<path d="M0.0283203 27.127C0.0283203 13.3932 11.1618 2.25977 24.8956 2.25977C37.2173 2.25977 47.4458 11.2214 49.419 22.9825H32.6623C30.822 15.8322 24.3312 10.5488 16.6065 10.5488C7.45061 10.5488 0.0283203 17.9711 0.0283203 27.127Z" fill="#3538CD"/>
<path d="M0.0283203 27.1269C0.0283203 40.8607 11.1618 51.9941 24.8956 51.9941C37.2173 51.9941 47.4458 43.0325 49.419 31.2714H32.6623C30.822 38.4217 24.3312 43.7051 16.6065 43.7051C7.45061 43.7051 0.0283203 36.2828 0.0283203 27.1269Z" fill="#3538CD"/>
<path d="M85.2992 23.1785C84.5911 18.0648 80.6575 15.0977 75.5549 15.0977C69.542 15.0977 65.0127 19.4809 65.0127 26.9212C65.0127 34.3502 69.4858 38.7447 75.5549 38.7447C81.0284 38.7447 84.6586 35.2043 85.2992 30.8099L81.0958 30.7874C80.5676 33.4848 78.3647 35.002 75.6111 35.002C71.8798 35.002 69.2049 32.2035 69.2049 26.9212C69.2049 21.7287 71.8573 18.8403 75.6224 18.8403C78.4209 18.8403 80.6125 20.425 81.0958 23.1785H85.2992Z" fill="black"/>
<path d="M93.9055 38.7784C96.6141 38.7784 98.2326 37.5084 98.9743 36.0585H99.1092V38.43H103.02V26.8762C103.02 22.3131 99.3003 20.942 96.0072 20.942C92.377 20.942 89.5897 22.5604 88.6906 25.7073L92.4894 26.2468C92.894 25.0667 94.0404 24.0552 96.0297 24.0552C97.9179 24.0552 98.9519 25.0218 98.9519 26.7189V26.7863C98.9519 27.9551 97.7268 28.0113 94.681 28.3373C91.3318 28.6969 88.1286 29.6972 88.1286 33.5859C88.1286 36.9801 90.6125 38.7784 93.9055 38.7784ZM94.962 35.7888C93.2649 35.7888 92.0511 35.0133 92.0511 33.5185C92.0511 31.9563 93.411 31.3044 95.2317 31.0459C96.2994 30.8998 98.4349 30.63 98.9631 30.203V32.2372C98.9631 34.1591 97.4121 35.7888 94.962 35.7888Z" fill="black"/>
<path d="M115.732 21.1668H112.326V17.0308H108.258V21.1668H105.808V24.3137H108.258V33.9119C108.235 37.1599 110.596 38.7559 113.653 38.666C114.81 38.6323 115.608 38.4075 116.046 38.2614L115.361 35.0807C115.136 35.1369 114.675 35.2381 114.17 35.2381C113.147 35.2381 112.326 34.8784 112.326 33.2375V24.3137H115.732V21.1668Z" fill="black"/>
<path d="M124.102 38.7784C126.811 38.7784 128.429 37.5084 129.171 36.0585H129.306V38.43H133.217V26.8762C133.217 22.3131 129.497 20.942 126.204 20.942C122.574 20.942 119.786 22.5604 118.887 25.7073L122.686 26.2468C123.091 25.0667 124.237 24.0552 126.226 24.0552C128.114 24.0552 129.148 25.0218 129.148 26.7189V26.7863C129.148 27.9551 127.923 28.0113 124.878 28.3373C121.528 28.6969 118.325 29.6972 118.325 33.5859C118.325 36.9801 120.809 38.7784 124.102 38.7784ZM125.159 35.7888C123.461 35.7888 122.248 35.0133 122.248 33.5185C122.248 31.9563 123.608 31.3044 125.428 31.0459C126.496 30.8998 128.631 30.63 129.16 30.203V32.2372C129.16 34.1591 127.609 35.7888 125.159 35.7888Z" fill="black"/>
<path d="M141.376 15.4124H137.308V38.43H141.376V15.4124Z" fill="black"/>
<path d="M153.09 38.7671C158.148 38.7671 161.362 35.2043 161.362 29.8658C161.362 24.516 158.148 20.942 153.09 20.942C148.033 20.942 144.818 24.516 144.818 29.8658C144.818 35.2043 148.033 38.7671 153.09 38.7671ZM153.113 35.5078C150.314 35.5078 148.943 33.0127 148.943 29.8546C148.943 26.6964 150.314 24.1676 153.113 24.1676C155.866 24.1676 157.238 26.6964 157.238 29.8546C157.238 33.0127 155.866 35.5078 153.113 35.5078Z" fill="black"/>
<path d="M172.323 45.2633C176.987 45.2633 180.427 43.1279 180.427 38.7109V21.1668H176.414V24.0215H176.189C175.571 22.7739 174.279 20.942 171.233 20.942C167.243 20.942 164.108 24.0664 164.108 29.7422C164.108 35.3729 167.243 38.1827 171.222 38.1827C174.178 38.1827 175.56 36.598 176.189 35.328H176.392V38.5985C176.392 41.1386 174.706 42.1838 172.391 42.1838C169.941 42.1838 168.862 41.0262 168.367 40.0147L164.703 40.9026C165.445 43.319 167.929 45.2633 172.323 45.2633ZM172.357 34.9908C169.671 34.9908 168.255 32.9003 168.255 29.7197C168.255 26.584 169.648 24.28 172.357 24.28C174.976 24.28 176.414 26.4491 176.414 29.7197C176.414 33.0127 174.953 34.9908 172.357 34.9908Z" fill="black"/>
</svg>
