<svg width="88" height="88" viewBox="0 0 88 88" fill="none" xmlns="http://www.w3.org/2000/svg">
<circle cx="44" cy="44" r="44" fill="#FDFCFC"/>
<path d="M38.0026 41.1089C37.7085 41.565 37.2251 41.8731 36.6828 41.8947C35.2668 41.951 33.8785 41.7493 32.518 41.2896C30.8847 40.7377 29.4331 39.8951 28.1633 38.7617C26.9327 37.6137 26.0256 36.256 25.4419 34.6886C24.5227 32.22 24.3248 29.9512 24.8483 27.8823C25.411 25.7988 26.4404 24.01 27.9365 22.5159C29.4717 21.0072 31.2582 19.8735 33.2958 19.1147C34.197 18.7791 35.1862 18.5 36.2634 18.2774C36.5656 18.2149 36.8671 18.1598 37.1677 18.1119C38.4641 17.9057 39.6032 18.8755 39.7853 20.1755C39.9856 21.6055 38.9623 22.9111 37.5528 23.2251C37.5377 23.2285 37.5225 23.2319 37.5073 23.2353C36.6014 23.4388 35.7958 23.6718 35.0905 23.9345C33.6799 24.4598 32.5208 25.1814 31.6133 26.0993C30.7058 27.0173 30.1064 28.0436 29.8151 29.1784C29.5091 30.2739 29.575 31.4094 30.0128 32.585C30.4067 33.643 31.0581 34.4935 31.9669 35.1367C32.9003 35.7261 33.9539 36.1592 35.1278 36.436C36.2871 36.6736 37.4149 36.7667 38.5113 36.7154C39.3475 36.6454 40.1677 37.7508 39.713 38.456L38.0026 41.1089Z" fill="url(#paint0_linear_40432_2486)"/>
<mask id="path-3-inside-1_40432_2486" fill="white">
<path d="M65.1698 57.3807C66.8039 57.8492 67.7704 59.569 67.0486 61.1081C65.6036 64.1894 63.3618 66.8522 60.5314 68.8066C56.8516 71.3474 52.4047 72.5338 47.9484 72.1635C43.492 71.7932 39.3019 69.8891 36.092 66.7758C32.8821 63.6625 30.851 59.5325 30.3447 55.0895C29.8385 50.6465 30.8885 46.1654 33.3158 42.4098C35.7431 38.6542 39.3975 35.8564 43.6564 34.4931C47.9152 33.1299 52.515 33.2855 56.672 34.9334C59.8695 36.201 62.6529 38.2913 64.754 40.9686C65.8035 42.3059 65.2486 44.1989 63.7618 45.0231C62.275 45.8472 60.4239 45.2767 59.2779 44.0212C57.9384 42.5538 56.275 41.3982 54.4033 40.6562C51.5703 39.5331 48.4355 39.4271 45.5331 40.3561C42.6307 41.2852 40.1402 43.1919 38.486 45.7514C36.8318 48.3108 36.1162 51.3647 36.4612 54.3926C36.8062 57.4205 38.1904 60.2351 40.378 62.3569C42.5655 64.4786 45.4211 65.7762 48.4581 66.0286C51.4952 66.2809 54.5257 65.4724 57.0335 63.7408C58.6903 62.5968 60.0511 61.0967 61.0261 59.3656C61.8604 57.8844 63.5357 56.9121 65.1698 57.3807Z"/>
</mask>
<path d="M65.1698 57.3807C66.8039 57.8492 67.7704 59.569 67.0486 61.1081C65.6036 64.1894 63.3618 66.8522 60.5314 68.8066C56.8516 71.3474 52.4047 72.5338 47.9484 72.1635C43.492 71.7932 39.3019 69.8891 36.092 66.7758C32.8821 63.6625 30.851 59.5325 30.3447 55.0895C29.8385 50.6465 30.8885 46.1654 33.3158 42.4098C35.7431 38.6542 39.3975 35.8564 43.6564 34.4931C47.9152 33.1299 52.515 33.2855 56.672 34.9334C59.8695 36.201 62.6529 38.2913 64.754 40.9686C65.8035 42.3059 65.2486 44.1989 63.7618 45.0231C62.275 45.8472 60.4239 45.2767 59.2779 44.0212C57.9384 42.5538 56.275 41.3982 54.4033 40.6562C51.5703 39.5331 48.4355 39.4271 45.5331 40.3561C42.6307 41.2852 40.1402 43.1919 38.486 45.7514C36.8318 48.3108 36.1162 51.3647 36.4612 54.3926C36.8062 57.4205 38.1904 60.2351 40.378 62.3569C42.5655 64.4786 45.4211 65.7762 48.4581 66.0286C51.4952 66.2809 54.5257 65.4724 57.0335 63.7408C58.6903 62.5968 60.0511 61.0967 61.0261 59.3656C61.8604 57.8844 63.5357 56.9121 65.1698 57.3807Z" stroke="url(#paint1_linear_40432_2486)" stroke-width="6.27176" mask="url(#path-3-inside-1_40432_2486)"/>
<circle cx="65.5053" cy="51.1156" r="2.10959" transform="rotate(16 65.5053 51.1156)" stroke="url(#paint2_linear_40432_2486)" stroke-width="1.25435"/>
<circle cx="47.0639" cy="19.8499" r="2.10959" transform="rotate(16 47.0639 19.8499)" stroke="url(#paint3_linear_40432_2486)" stroke-width="1.25435"/>
<defs>
<linearGradient id="paint0_linear_40432_2486" x1="22.8989" y1="12.5859" x2="98.5203" y2="39.919" gradientUnits="userSpaceOnUse">
<stop stop-color="#A854E9"/>
<stop offset="1" stop-color="#4F91FC"/>
</linearGradient>
<linearGradient id="paint1_linear_40432_2486" x1="44.0396" y1="17.9916" x2="131.135" y2="151.471" gradientUnits="userSpaceOnUse">
<stop stop-color="#A854E9"/>
<stop offset="1" stop-color="#4F91FC"/>
</linearGradient>
<linearGradient id="paint2_linear_40432_2486" x1="63.393" y1="46.5791" x2="80.4569" y2="61.3475" gradientUnits="userSpaceOnUse">
<stop stop-color="#A854E9"/>
<stop offset="1" stop-color="#4F91FC"/>
</linearGradient>
<linearGradient id="paint3_linear_40432_2486" x1="44.9516" y1="15.3135" x2="62.0154" y2="30.0818" gradientUnits="userSpaceOnUse">
<stop stop-color="#A854E9"/>
<stop offset="1" stop-color="#4F91FC"/>
</linearGradient>
</defs>
</svg>
